<?xml version="1.0" encoding="utf-8"?>
<!-- Generator: Adobe Illustrator 25.1.0, SVG Export Plug-In . SVG Version: 6.00 Build 0)  -->
<svg version="1.1" id="Layer_1" xmlns="http://www.w3.org/2000/svg" xmlns:xlink="http://www.w3.org/1999/xlink" x="0px" y="0px"
	 viewBox="0 0 154.1 131.7" style="enable-background:new 0 0 154.1 131.7;" xml:space="preserve">
<style type="text/css">
	.st0{fill:#168C44;stroke:#EE365E;stroke-width:9;stroke-miterlimit:10;}
	.st1{fill:#3A54A5;stroke:#EE365E;stroke-width:9;stroke-miterlimit:10;}
	.st2{fill:#2E3192;}
	.st3{fill:#FBB040;}
</style>
<rect x="8.4" y="20.6" class="st0" width="91.7" height="74.4"/>
<path class="st1" d="M43.2,125.5"/>
<g>
	<g>
		<path class="st2" d="M64.5,1.8C56.8,0.4,48.8,2.2,42.6,7c-1.6,1.3-3.3,2.7-4.3,4.5c-1.1,2-1.2,4.3-0.5,6.5
			c1.1,3.3,3.6,5.9,6.5,7.8c9.7,6.5,25.8,4.1,30.7,16.7c1.2,3.2,1.7,6.7,1.9,10.1c0.1,1.8,0.1,3.5,0.1,5.3c0,2,0.1,4.1-0.3,6
			c-1.2,6.5-7.8,9.4-13.4,11.4c-7.4,2.8-14.7,5.5-20.9,10.6c-6,4.9-10.2,12.1-10.5,20c-0.2,7.7,4.1,14.4,10.7,18.2
			c7.3,4.2,16.1,4.1,23.9,1.8c2.1-0.6,4.1-1.4,6.1-2.3c1.2-0.5,1.5-2.4,0.9-3.4c-0.7-1.3-2.2-1.4-3.4-0.9c-6.9,3-15,4.5-22.2,1.8
			c-5.8-2.2-10.6-7.3-10.9-13.7c-0.3-7,3.5-13.3,8.7-17.7c5.5-4.7,12.4-7.1,19.1-9.6c5.8-2.2,12.3-5,15.4-10.8c1.9-3.6,2-7.6,2-11.5
			c0-3.5-0.1-7-0.7-10.5c-1-6.7-4-13-9.9-16.7c-5-3.2-11-4.2-16.6-5.8c-2.6-0.8-5.1-1.6-7.4-3c-2.1-1.3-4.5-3.4-5-6
			c-0.3-1.7,0.9-2.9,2.1-3.9c1.3-1.1,2.6-2.1,4.1-2.9c2.9-1.6,6.2-2.5,9.6-2.7c1.7-0.1,3.3,0,5,0.3c1.3,0.2,2.7-0.4,3.1-1.7
			C66.5,3.6,65.8,2,64.5,1.8L64.5,1.8z"/>
	</g>
</g>
<g>
	<path class="st3" d="M74.2,71.9c-3.2,0-5.5-0.9-7.1-2.7c-1.3-1.5-2.1-3.6-2.4-6.5c-0.2-1.3-0.2-3.9-0.2-7.8c0-1.4,0-2.6,0.1-3.5
		c0.1-0.9,0.2-1.6,0.3-1.9c0.3-0.7,0.7-1.1,1.4-1.1c0.9,0,1.4,0.9,1.4,2.6v9c0,6.2,2.2,9.3,6.5,9.3c4.1,0,6.1-5.2,6.1-15.6
		c0-0.4,0-0.9,0-1.5c0-0.6,0-1,0-1.2c0-0.6,0.1-1.2,0.3-1.7c0.3-0.6,0.7-0.9,1.3-0.9c1,0,1.5,0.7,1.5,2.1c0,0.4,0,1,0,1.9
		c0,0.8,0,1.5,0,1.9C83.4,66,80.3,71.9,74.2,71.9z"/>
	<path class="st3" d="M105.1,62c-0.6,3.1-2,5.6-4,7.5c-2,1.9-4.4,2.8-7.2,2.8c-2.5,0-4.4-0.7-5.6-2.1c-1.3-1.4-1.9-3.5-1.9-6.3
		c0-2.6,0.6-5.4,1.9-8.2s2.9-5.1,4.8-6.8c1.3-1.2,2.7-1.7,4.1-1.7c0.9,0,2.2,0.3,3.7,0.9c1.9,0.7,2.8,1.5,2.8,2.4
		c0,0.4-0.2,0.8-0.5,1.1s-0.7,0.5-1.1,0.5c-0.2,0-0.5-0.1-0.9-0.4c-1.6-0.9-2.9-1.4-3.9-1.4c-0.8,0-1.6,0.4-2.4,1.2
		c-0.4,0.4-1,1.1-1.8,2.2c-2.4,3.1-3.5,6.5-3.5,10.2c0,1.9,0.3,3.3,0.9,4c0.6,0.8,1.8,1.3,3.5,1.3c1.8,0,3.4-0.6,4.8-1.7
		c1.4-1.2,2.4-3,3-5.2c-2.8,0.1-5.2,0.7-7.3,1.6C94.2,64,94,64,93.7,64c-0.4,0-0.8-0.2-1.1-0.5c-0.3-0.3-0.4-0.7-0.4-1.1
		c0-0.6,0.3-1,0.8-1.3c2.2-1.3,6-2,11.4-2c0.4,0,0.8,0.1,1.1,0.4s0.4,0.7,0.4,1.1C105.9,61.3,105.7,61.7,105.1,62z"/>
	<path class="st3" d="M122.2,70.6c-1.2,0.5-3,1-5.4,1.5c-2.3,0.4-4.1,0.6-5.6,0.6c-1,0-1.8-0.2-2.2-0.5c-0.6-0.4-0.9-1.2-0.9-2.4
		l0.3-5.1c0.3-4.7,0.4-9.8,0.4-15.5c0-0.4,0.1-0.8,0.4-1.1s0.6-0.5,1.1-0.5c0.4,0,0.8,0.2,1.1,0.5s0.4,0.7,0.4,1.1
		c0,5.8-0.1,11-0.4,15.7l-0.2,2.3c-0.1,0.8-0.1,1.6-0.1,2.2c2.7,0,6-0.6,10.1-1.9c0.2-0.1,0.3-0.1,0.5-0.1c0.4,0,0.8,0.2,1.1,0.5
		c0.3,0.3,0.4,0.7,0.4,1.1C123.2,69.9,122.8,70.3,122.2,70.6z"/>
	<path class="st3" d="M141.7,51.7c-0.2,0.4-0.6,1-1,1.8l-2.6,6.5c-1,2.4-2,4.6-2.9,6.4l-1.9,3.4l-0.8,1.7c-0.3,0.6-0.8,0.9-1.4,0.9
		c-0.4,0-0.8-0.1-1.1-0.4c-0.3-0.3-0.5-0.7-0.5-1.1c0-0.3,0.5-1.4,1.4-3.3l1.9-3.4c-1.8-2.4-3-4.2-3.5-5.6c-0.5-1.2-1.2-2.5-2.3-4.1
		c-1.5-2.2-2.3-3.5-2.6-4c-0.2-0.3-0.2-0.6-0.2-0.8c0-0.4,0.2-0.8,0.5-1.1c0.3-0.3,0.7-0.5,1.1-0.5c0.5,0,0.9,0.2,1.3,0.7l1.2,1.9
		c1.1,1.6,1.8,2.7,2.1,3.3c0.8,1.3,1.4,2.4,1.8,3.5c0.3,0.8,1.1,2,2.2,3.5l3.5-8.5c0.4-0.7,0.9-1.8,1.7-3.3c0.3-0.7,0.8-1,1.4-1
		c0.4,0,0.8,0.1,1.1,0.4c0.3,0.3,0.5,0.7,0.5,1.1C142.5,50,142.2,50.7,141.7,51.7z"/>
	<path class="st3" d="M77.8,108.2c-1.2,0.5-3,1-5.4,1.5c-2.3,0.4-4.1,0.6-5.6,0.6c-1,0-1.8-0.2-2.2-0.5c-0.6-0.4-0.9-1.2-0.9-2.4
		l0.3-5.1c0.3-4.7,0.4-9.8,0.4-15.5c0-0.4,0.1-0.8,0.4-1.1s0.6-0.5,1.1-0.5c0.4,0,0.8,0.2,1.1,0.5s0.4,0.7,0.4,1.1
		c0,5.8-0.1,11-0.4,15.7l-0.2,2.3c-0.1,0.8-0.1,1.6-0.1,2.2c2.7,0,6-0.6,10.1-1.9c0.2-0.1,0.3-0.1,0.5-0.1c0.4,0,0.8,0.2,1.1,0.5
		c0.3,0.3,0.4,0.7,0.4,1.1C78.8,107.4,78.5,107.9,77.8,108.2z"/>
	<path class="st3" d="M91.7,109.8c-2.9,0-5.3-0.9-7.3-2.6c-2.1-1.8-3.2-4.2-3.2-7.1c0-3.5,1-6.7,3.1-9.6c2.3-3.2,5.2-4.8,8.7-4.8
		c3.4,0,5.8,0.8,7.5,2.3c1.7,1.6,2.6,4,2.6,7.4c0,3.5-1,6.7-2.9,9.5C98,108.1,95.2,109.8,91.7,109.8z M93,88.8
		c-2.5,0-4.6,1.2-6.3,3.7c-1.6,2.3-2.4,4.8-2.4,7.6c0,2,0.7,3.6,2.2,4.8c1.4,1.2,3.1,1.7,5.2,1.7c2.5,0,4.5-1.2,6.1-3.7
		c1.4-2.2,2.2-4.7,2.2-7.5c0-2.4-0.5-4.1-1.6-5.1C97.3,89.3,95.5,88.8,93,88.8z"/>
	<path class="st3" d="M124.3,99.6c-0.6,3.1-2,5.6-4,7.5c-2,1.9-4.4,2.8-7.2,2.8c-2.5,0-4.4-0.7-5.6-2.1c-1.3-1.4-1.9-3.5-1.9-6.3
		c0-2.6,0.6-5.4,1.9-8.2s2.9-5.1,4.8-6.8c1.3-1.2,2.7-1.7,4.1-1.7c0.9,0,2.2,0.3,3.7,0.9c1.9,0.7,2.8,1.5,2.8,2.4
		c0,0.4-0.2,0.8-0.5,1.1s-0.7,0.5-1.1,0.5c-0.2,0-0.5-0.1-0.9-0.4c-1.6-0.9-2.9-1.4-3.9-1.4c-0.8,0-1.6,0.4-2.4,1.2
		c-0.4,0.4-1,1.1-1.8,2.2c-2.4,3.1-3.5,6.5-3.5,10.2c0,1.9,0.3,3.3,0.9,4c0.6,0.8,1.8,1.3,3.5,1.3c1.8,0,3.4-0.6,4.8-1.7
		c1.4-1.2,2.4-3,3-5.2c-2.8,0.1-5.2,0.7-7.3,1.6c-0.2,0.1-0.5,0.2-0.7,0.2c-0.4,0-0.8-0.2-1.1-0.5c-0.3-0.3-0.4-0.7-0.4-1.1
		c0-0.6,0.3-1,0.8-1.3c2.2-1.3,6-2,11.4-2c0.4,0,0.8,0.1,1.1,0.4s0.4,0.7,0.4,1.1C125.1,98.8,124.8,99.3,124.3,99.6z"/>
	<path class="st3" d="M137.9,109.8c-2.9,0-5.3-0.9-7.3-2.6c-2.1-1.8-3.2-4.2-3.2-7.1c0-3.5,1-6.7,3.1-9.6c2.3-3.2,5.2-4.8,8.7-4.8
		c3.4,0,5.8,0.8,7.5,2.3c1.7,1.6,2.6,4,2.6,7.4c0,3.5-1,6.7-2.9,9.5C144.3,108.1,141.4,109.8,137.9,109.8z M139.3,88.8
		c-2.5,0-4.6,1.2-6.3,3.7c-1.6,2.3-2.4,4.8-2.4,7.6c0,2,0.7,3.6,2.2,4.8c1.4,1.2,3.1,1.7,5.2,1.7c2.5,0,4.5-1.2,6.1-3.7
		c1.4-2.2,2.2-4.7,2.2-7.5c0-2.4-0.5-4.1-1.6-5.1C143.5,89.3,141.8,88.8,139.3,88.8z"/>
</g>
</svg>
